<?xml version="1.0" encoding="UTF-8" standalone="no"?>
<!-- Created with Inkscape (http://www.inkscape.org/) -->

<svg
   xmlns:dc="http://purl.org/dc/elements/1.1/"
   xmlns:cc="http://creativecommons.org/ns#"
   xmlns:rdf="http://www.w3.org/1999/02/22-rdf-syntax-ns#"
   xmlns:svg="http://www.w3.org/2000/svg"
   xmlns="http://www.w3.org/2000/svg"
   xmlns:xlink="http://www.w3.org/1999/xlink"
   version="1.1"
   width="210mm"
   height="297mm"
   id="svg2">
  <defs
     id="defs4">
    <linearGradient
       id="linearGradient5363">
      <stop
         id="stop5365"
         style="stop-color:#6ba8b1;stop-opacity:1"
         offset="0" />
      <stop
         id="stop5367"
         style="stop-color:#6ba8b1;stop-opacity:0"
         offset="1" />
    </linearGradient>
    <linearGradient
       id="linearGradient5328">
      <stop
         id="stop5330"
         style="stop-color:#94c7e2;stop-opacity:1"
         offset="0" />
    </linearGradient>
    <filter
       color-interpolation-filters="sRGB"
       id="filter5405">
      <feGaussianBlur
         id="feGaussianBlur5407"
         stdDeviation="0.23712002" />
    </filter>
    <radialGradient
       cx="21.070801"
       cy="13.9051"
       r="2.5801899"
       fx="21.070801"
       fy="13.9051"
       id="radialGradient3156"
       xlink:href="#id0"
       gradientUnits="userSpaceOnUse"
       gradientTransform="matrix(18.888883,0,0,19.164916,133.81576,380.1779)" />
    <radialGradient
       cx="21.070801"
       cy="13.9051"
       r="2.5801899"
       fx="21.070801"
       fy="13.9051"
       id="radialGradient3153"
       xlink:href="#id0"
       gradientUnits="userSpaceOnUse" />
    <radialGradient
       cx="21.070801"
       cy="13.9051"
       r="2.5801899"
       fx="21.070801"
       fy="13.9051"
       id="id0"
       gradientUnits="userSpaceOnUse">
      <stop
         id="stop51"
         style="stop-color:#94c7e2;stop-opacity:1"
         offset="0" />
      <stop
         id="stop53"
         style="stop-color:#00a8ff;stop-opacity:1"
         offset="1" />
      <stop
         id="stop55"
         style="stop-color:#00a8ff;stop-opacity:1"
         offset="1" />
    </radialGradient>
    <radialGradient
       cx="21.070801"
       cy="13.9051"
       r="2.5801899"
       fx="21.070801"
       fy="13.9051"
       id="radialGradient3950"
       xlink:href="#id0"
       gradientUnits="userSpaceOnUse" />
    <radialGradient
       cx="21.070801"
       cy="13.9051"
       r="2.5801899"
       fx="21.070801"
       fy="13.9051"
       id="radialGradient3097"
       xlink:href="#id0"
       gradientUnits="userSpaceOnUse"
       gradientTransform="matrix(289.87552,0,0,310.68264,-5911.9024,-3500.6775)" />
    <radialGradient
       cx="21.070801"
       cy="13.9051"
       r="2.5801899"
       fx="21.070801"
       fy="13.9051"
       id="radialGradient3876"
       xlink:href="#id0"
       gradientUnits="userSpaceOnUse"
       gradientTransform="matrix(289.87552,0,0,310.68264,-5829.0453,-3623.5346)" />
    <radialGradient
       cx="102.21555"
       cy="287.50928"
       r="54.152893"
       fx="102.21555"
       fy="287.50928"
       id="radialGradient5371"
       xlink:href="#linearGradient5363"
       gradientUnits="userSpaceOnUse"
       gradientTransform="matrix(1,0,0,1.1234694,-3.0304576,-31.457975)" />
  </defs>
  <metadata
     id="metadata7">
    <rdf:RDF>
      <cc:Work
         rdf:about="">
        <dc:format>image/svg+xml</dc:format>
        <dc:type
           rdf:resource="http://purl.org/dc/dcmitype/StillImage" />
        <dc:title></dc:title>
      </cc:Work>
    </rdf:RDF>
  </metadata>
  <g
     id="HAS_ID_34">
    <path
       d="m 117.88673,351.18472 c -4.09602,-0.96616 -9.13153,-3.45427 -11.30683,-5.58684 -2.7707,-2.71629 -5.05087,-7.33699 -5.49331,-11.13204 -0.31065,-2.66459 -0.1439,-3.93632 0.87054,-6.63916 0.69014,-1.83878 1.73163,-3.9353 2.31442,-4.65893 1.82648,-2.26786 6.3952,-9.03744 6.3952,-9.47592 0,-0.23027 0.41625,-0.71603 0.92501,-1.07947 1.49048,-1.06476 4.7541,-5.71264 8.78553,-12.5119 2.06721,-3.48647 4.08926,-6.33903 4.49346,-6.33903 0.8144,0 2.33032,1.7008 4.20978,4.7232 0.68017,1.09379 1.47739,2.32431 1.7716,2.73448 0.2942,0.41017 0.89829,1.41696 1.3424,2.23731 0.44412,0.82034 3.10581,4.73563 5.91486,8.70063 6.48078,9.14768 9.8557,15.03701 10.29325,17.96197 0.78321,5.23584 -2.16825,12.61181 -6.35429,15.87994 -6.44946,5.03523 -16.0574,7.09736 -24.16162,5.18576 z m 15.30637,-11.96076 c 0,-1.91464 -0.31175,-2.07198 -1.80325,-0.91013 -0.94293,0.73454 -0.9534,0.89842 -0.1267,1.98445 1.15854,1.52198 1.92995,1.09256 1.92995,-1.07432 z M 62.10896,315.64719 c -6.846907,-1.03483 -15.555662,-7.58815 -15.555662,-11.70561 0,-0.67701 -0.274776,-1.23093 -0.610609,-1.23093 -0.888716,0 -0.193155,-15.05811 0.746379,-16.15832 0.233517,-0.27345 1.549975,-1.95143 2.925456,-3.72884 2.860385,-3.69622 8.038332,-7.53184 11.304953,-8.37428 3.852496,-0.99353 10.333448,-0.71969 14.082861,0.59504 3.863026,1.35457 5.003512,2.15219 7.934369,5.54905 2.33723,2.70884 3.690214,6.57463 4.298443,12.28164 0.751537,7.0516 -1.849604,13.68544 -7.178315,18.3073 -4.09566,3.55237 -11.612772,5.42243 -17.947875,4.46495 z m 7.942941,-8.7687 c 0.56179,-1.26016 -0.569195,-3.42207 -1.790227,-3.42207 -0.593424,0 -1.626841,0.63271 -2.296486,1.40603 -1.200955,1.3869 -1.202271,1.41567 -0.09634,2.11301 1.503425,0.948 3.740321,0.89614 4.18305,-0.097 z m -9.302695,-20.49441 c -1.233363,-0.20718 -1.734829,0.16905 -1.206355,0.90508 0.285727,0.39795 0.653437,0.3722 1.302982,-0.0912 0.815292,-0.58167 0.805721,-0.66229 -0.09663,-0.81387 z m 60.728744,-3.10895 c -3.48429,-0.70622 -5.31856,-1.73671 -8.1257,-4.56501 -3.60574,-3.63293 -5.97048,-8.90203 -6.79446,-15.13934 -1.2515,-9.47354 1.26984,-17.45872 7.54304,-23.88912 2.79062,-2.86055 3.84368,-3.54677 7.27867,-4.74308 5.09293,-1.77371 8.34175,-2.10732 13.32967,-1.36874 9.01127,1.33433 14.62438,5.10323 17.24503,11.57912 1.20561,2.97918 1.17044,13.56479 -0.0607,18.25725 -2.05248,7.82324 -10.35163,14.9 -22.33398,19.04439 -4.22208,1.46031 -4.70286,1.50936 -8.08161,0.82453 z m 12.84316,-16.47924 c 1.68942,-2.57898 -1.38021,-5.16403 -3.54989,-2.9895 -1.64117,1.64484 -1.64221,2.51298 -0.004,3.56425 1.87208,1.20157 2.452,1.10779 3.55419,-0.57475 z m -11.04584,-20.428 c 0.16153,-0.73272 -0.11441,-0.87622 -1.43412,-0.74577 -1.03015,0.10183 -1.70807,0.49687 -1.83417,1.06882 -0.16153,0.73273 0.11441,0.87622 1.43412,0.74577 1.03015,-0.10182 1.70807,-0.49687 1.83417,-1.06882 z m -64.416111,22.79926 c -1.014916,-0.37992 -3.068499,-1.65762 -4.563509,-2.83932 -3.360781,-2.65646 -7.104914,-9.24256 -7.580867,-13.33509 -0.174909,-1.50396 -0.558209,-2.9972 -0.851774,-3.3183 -0.538691,-0.58923 -0.234308,-3.55726 0.662668,-6.46168 1.315319,-4.259 8.443678,-9.73312 14.538817,-11.16486 3.436435,-0.80722 14.368738,-1.16165 14.368738,-0.46585 0,0.29105 0.395707,0.52917 0.879348,0.52917 1.477757,0 7.090578,5.51566 9.308835,9.1477 1.863362,3.05095 2.097555,3.84788 2.118528,7.2091 0.02697,4.32214 -1.702149,9.52198 -4.159531,12.50867 -2.156731,2.62127 -8.367124,6.44591 -12.628959,7.77749 -4.169638,1.30277 -9.251629,1.47633 -12.092294,0.41297 z m 14.830742,-13.42297 c 0.618152,-0.99422 0.623234,-1.3702 0.02686,-1.98872 -0.991627,-1.02847 -1.940674,-0.95962 -3.193139,0.23164 -1.008851,0.95956 -1.008851,1.02916 0,1.98872 1.384602,1.31695 2.242435,1.25419 3.166258,-0.23164 z m -9.808643,-17.9154 c 0,-1.45609 -0.387678,-1.545 -1.831715,-0.42012 -1.448612,1.12845 -1.323972,1.66307 0.387719,1.66307 1.155197,0 1.443996,-0.24859 1.443996,-1.24295 z"
       id="statusHumidity"
       style="fill:#94c7e2;fill-opacity:1;stroke:url(#radialGradient5371);stroke-opacity:1" />
    <text
       x="208.35968"
       y="265.32388"
       transform="scale(0.75481638,1.3248255)"
       id="textHumidity"
       style="font-size:142.52481079px;font-weight:normal;fill:#1f1a17;fill-rule:evenodd;font-family:Calibri">50%</text>
  </g>
</svg>
