<?xml version="1.0" standalone="no"?>
<!DOCTYPE svg PUBLIC "-//W3C//DTD SVG 20010904//EN"
 "http://www.w3.org/TR/2001/REC-SVG-20010904/DTD/svg10.dtd">
<svg version="1.0" xmlns="http://www.w3.org/2000/svg"
 width="450.000000pt" height="450.000000pt" viewBox="0 0 450.000000 450.000000"
 preserveAspectRatio="xMidYMid meet">
<metadata>
Created by potrace 1.11, written by Peter Selinger 2001-2013
</metadata>
<g transform="translate(0.000000,450.000000) scale(0.100000,-0.100000)"
fill="#000000" stroke="none">
<path d="M1220 3440 c-547 -368 -1005 -681 -1017 -695 -34 -39 -31 -98 6 -136
42 -41 93 -40 157 4 158 108 1879 1263 1885 1265 5 2 437 -285 961 -638 524
-353 963 -646 977 -651 90 -35 174 93 109 164 -13 14 -466 324 -1008 688 -904
609 -989 664 -1030 666 -44 3 -58 -6 -1040 -667z"/>
<path d="M2124 3076 c-17 -8 -34 -21 -38 -31 -3 -9 -6 -252 -6 -539 l0 -523
23 -21 c22 -20 34 -22 156 -22 127 0 133 1 156 25 l25 24 0 525 0 524 -31 26
c-29 25 -36 26 -142 26 -71 -1 -123 -6 -143 -14z"/>
<path d="M1840 2697 c-241 -121 -418 -343 -481 -602 -28 -114 -31 -305 -5
-409 92 -379 394 -655 776 -706 372 -51 758 156 927 495 67 134 94 252 94 412
0 280 -121 531 -340 705 -60 49 -195 128 -216 128 -3 0 -5 -55 -5 -123 l0
-122 62 -45 c117 -85 216 -233 255 -380 22 -86 22 -244 0 -330 -60 -229 -232
-413 -453 -486 -78 -25 -104 -29 -209 -29 -98 0 -134 4 -195 23 -115 36 -195
86 -286 176 -127 127 -188 260 -201 436 -16 233 103 478 296 605 l60 40 1 123
c0 67 -3 122 -7 122 -5 0 -37 -15 -73 -33z"/>
<path d="M3693 2700 c-21 -13 -35 -31 -42 -57 -7 -25 -11 -360 -11 -1015 l0
-978 -693 0 c-382 0 -1005 3 -1385 7 l-692 6 -2 988 -3 989 -28 27 c-22 22
-37 28 -73 28 -39 0 -50 -5 -75 -33 l-29 -32 0 -1090 0 -1090 593 -2 c325 -2
1043 -4 1595 -6 l1002 -2 0 1107 c0 1035 -2 1109 -18 1129 -38 47 -88 56 -139
24z"/>
</g>
</svg>
