<?xml version="1.0" encoding="UTF-8" standalone="no"?>
<!-- Created with Inkscape (http://www.inkscape.org/) -->

<svg
   xmlns:dc="http://purl.org/dc/elements/1.1/"
   xmlns:cc="http://creativecommons.org/ns#"
   xmlns:rdf="http://www.w3.org/1999/02/22-rdf-syntax-ns#"
   xmlns:svg="http://www.w3.org/2000/svg"
   xmlns="http://www.w3.org/2000/svg"
   version="1.1"
   width="744.09448"
   height="1052.3622"
   id="svg3100">
  <defs
     id="defs3102" />
  <metadata
     id="metadata3105">
    <rdf:RDF>
      <cc:Work
         rdf:about="">
        <dc:format>image/svg+xml</dc:format>
        <dc:type
           rdf:resource="http://purl.org/dc/dcmitype/StillImage" />
        <dc:title></dc:title>
      </cc:Work>
    </rdf:RDF>
  </metadata>
  <g
     id="HAS_ID_17">
    <metadata id="metaDimmer" type="dimmer" action="fill" param1="yellow" param2="white" functionParam1=""/>     
    <path
       d="m 25.0114,19.5274 -0.1375,0.1607 -0.0168,-0.2108 -0.1804,0.1103 0.0492,-0.2056 -0.2057,0.0492 0.1104,-0.1804 -0.2108,-0.0168 0.1606,-0.1375 -0.1952,-0.0811 0.1952,-0.0811 -0.1606,-0.1375 0.2108,-0.0167 -0.1104,-0.1804 0.2057,0.0491 -0.0492,-0.2056 0.1804,0.1103 0.0168,-0.2108 0.1375,0.1607 0.0811,-0.1953 0.0811,0.1953 0.1374,-0.1607 0.0168,0.2108 0.1804,-0.1103 -0.0492,0.2056 0.2057,-0.0491 -0.1103,0.1804 0.2107,0.0167 -0.1606,0.1375 0.1953,0.0811 -0.1953,0.0811 0.1606,0.1375 -0.2107,0.0168 0.1103,0.1804 -0.2057,-0.0492 0.0492,0.2056 -0.1804,-0.1103 -0.0168,0.2108 -0.1374,-0.1607 -0.0811,0.1953 z"
       transform="matrix(13.298091,0,0,14.019514,-11.365063,230.61263)"
       id="statusDimmer"
       style="fill:#fff500;fill-rule:evenodd" />
    <text
       x="294.53915"
       y="549.13855"
       transform="scale(1.0791882,0.92662243)"
       id="textDimmer"
       style="font-size:4.75018883px;font-weight:normal;fill:#838281;fill-rule:evenodd;font-family:Arial">100</text>
    <g
       transform="translate(-26.336924,2.2295809)"
       id="Dimmer">
      <path
         d="m 348.73091,490.15241 c 3.91201,0 7.08329,2.72312 7.08329,6.08209 0,3.35897 -3.79704,4.56439 -3.79704,9.90674 0,0.32454 -0.1672,0.71053 -0.56039,0.71053 -0.83448,0 -1.58498,0 -2.72586,0 -1.20363,0 -1.89101,0 -2.72568,0 -0.39244,0 -0.5602,-0.38616 -0.5602,-0.71053 0,-5.34235 -3.79723,-6.54777 -3.79723,-9.90674 -1.9e-4,-3.35913 3.17128,-6.08209 7.08311,-6.08209 z m -5.17707,5.06975 4.14289,5.98272 -3.89266,-6.10337 -0.25023,0.12098 z m 10.35433,0 -4.1429,5.98272 3.89266,-6.10337 0.25024,0.12098 z m -7.9407,0.32471 1.81004,2.64488 -1.5521,-2.75231 -0.25794,0.10807 z m 5.52725,0 -1.81004,2.64488 1.55229,-2.75231 0.25775,0.10807 z m 0.27146,14.64549 c 0,0.28792 -0.24385,0.63133 -0.54217,0.76312 l -1.95131,0.86249 c -0.29833,0.13226 -0.78601,0.13226 -1.08434,0 l -1.95093,-0.86249 c -0.29832,-0.13179 -0.54236,-0.4752 -0.54236,-0.76312 l 0,-2.42164 c 0,-0.28809 0.27428,-0.52392 0.60999,-0.52392 l 4.85132,0 c 0.33552,0 0.60998,0.23583 0.60998,0.52392 l -1.8e-4,2.42164 z m 1.80928,-15.21796 c -0.12586,-0.0839 -0.22956,-0.19437 -0.29588,-0.26066 l 0,0 c -0.0564,-0.0678 -0.15404,-0.17582 -0.22261,-0.29132 l 0,0 c -0.12211,-0.0629 -0.23558,-0.14517 -0.30697,-0.19775 l 0,0 c -0.0639,-0.0581 -0.16344,-0.14679 -0.24271,-0.24518 l 0,0 c -0.13714,-0.0484 -0.26282,-0.12421 -0.34229,-0.16889 l 0,0 c -0.0733,-0.05 -0.19819,-0.12904 -0.29362,-0.22485 l 0,0 c -0.12963,-0.0323 -0.2585,-0.0807 -0.33872,-0.11453 l 0,0 c -0.0751,-0.0371 -0.19067,-0.10162 -0.29099,-0.17534 l 0,0 c -3.8e-4,-3.2e-4 -10e-4,-9.6e-4 -0.002,-0.001 l 0,0 c -0.14466,-0.0137 -0.28781,-0.0581 -0.37629,-0.0871 l 0,0 c -0.0751,-0.0274 -0.20007,-0.0758 -0.31072,-0.13711 l 0,0 c -0.008,-0.005 -0.016,-0.009 -0.0244,-0.014 l 0,0 c -0.13338,-0.002 -0.27296,-0.021 -0.36051,-0.0371 l 0,0 c -0.0827,-0.0194 -0.21472,-0.0581 -0.3327,-0.10969 l 0,0 c -0.0488,0.005 -0.0996,0.007 -0.14653,0.008 l 0,0 c -0.0902,0 -0.17283,-0.007 -0.23389,-0.0113 l 0,0 c -0.0883,-0.0131 -0.23764,-0.0306 -0.37064,-0.0742 l 0,0 c -0.12963,0.0258 -0.2662,0.0323 -0.35431,0.0371 l 0,0 c -0.0845,-0.002 -0.22074,-0.0116 -0.3483,-0.0371 l 0,0 c -0.13525,0.0468 -0.28423,0.0629 -0.37666,0.0742 l 0,0 c -0.0545,0.004 -0.1315,0.009 -0.21735,0.009 l 0,0 c -0.0507,-9.6e-4 -0.1052,-0.002 -0.15968,-0.007 l 0,0 c -7.5e-4,3.3e-4 -0.002,6.5e-4 -0.002,9.7e-4 l 0,0 c -0.11836,0.0516 -0.24873,0.0903 -0.33515,0.1113 l 0,0 c -0.0845,0.016 -0.22073,0.0355 -0.3528,0.0371 l 0,0 c -0.11835,0.0726 -0.25812,0.11775 -0.34209,0.15163 l 0,0 c -0.0845,0.0274 -0.22995,0.0677 -0.3731,0.0839 l 0,0 c -7.5e-4,6.5e-4 -0.002,0.002 -0.003,0.002 l 0,0 c -0.0996,0.0742 -0.21566,0.13872 -0.29362,0.17792 l 0,0 c -0.077,0.0323 -0.20496,0.0823 -0.33383,0.11291 l 0,0 c -0.0958,0.0984 -0.22111,0.17534 -0.29832,0.22582 l 0,0 c -0.077,0.0419 -0.2044,0.11614 -0.33947,0.16518 l 0,0 c -0.0789,0.0984 -0.18035,0.19017 -0.24516,0.24921 l 0,0 c -0.0695,0.05 -0.18222,0.13227 -0.30264,0.19566 l 0,0 c -0.0676,0.11775 -0.1672,0.22373 -0.22675,0.29357 l 0,0 c -0.0639,0.0629 -0.17095,0.17292 -0.29457,0.25664 l 0,0 c -0.0507,0.11775 -0.12211,0.23356 -0.17095,0.30728 l 0,0 -0.0958,-0.0468 c 0.0301,-0.0436 0.0676,-0.10646 0.1052,-0.17437 l 0,0 c -0.0413,0.0156 -0.0845,0.0258 -0.12586,0.0274 l 0,0 c -0.0124,0 -0.0244,-6.4e-4 -0.0376,-0.003 l 0,0 c -0.12963,-0.0194 -0.19012,-0.11291 -0.18599,-0.19711 l 0,0 c 3.8e-4,-0.0694 0.0301,-0.14034 0.0751,-0.19502 l 0,0 c 0.0639,-0.0758 0.16908,-0.12581 0.27597,-0.12581 l 0,0 c 0.0714,-10e-4 0.14653,0.0258 0.18918,0.0887 l 0,0 c 0.0207,0.0307 0.0263,0.0645 0.0263,0.10001 l 0,0 c 0,0.0161 -0.002,0.0355 -0.005,0.0532 l 0,0 c 0.0657,-0.0548 0.12211,-0.10968 0.15592,-0.14678 l 0,0 c 0.0376,-0.0419 0.0883,-0.10001 0.13714,-0.16195 l 0,0 c -0.0376,0.011 -0.0751,0.0177 -0.11084,0.0194 l 0,0 c -0.0225,0 -0.0451,-0.003 -0.0676,-0.0105 l 0,0 c -0.0996,-0.0355 -0.14089,-0.11936 -0.14089,-0.19647 l 0,0 c 3.7e-4,-0.0726 0.0301,-0.14517 0.0883,-0.19792 l 0,0 c 0.0657,-0.0597 0.16343,-0.10968 0.26788,-0.1113 l 0,0 c 0.0827,-0.003 0.17096,0.0468 0.19576,0.13873 l 0,0 c 0.007,0.0242 0.0107,0.0484 0.0107,0.0726 l 0,0 c -3.8e-4,0.021 -0.003,0.0436 -0.008,0.0645 l 0,0 c 0.0676,-0.0419 0.12962,-0.0855 0.16719,-0.11614 l 0,0 c 0.0394,-0.0323 0.092,-0.0806 0.14278,-0.13549 l 0,0 c -0.0173,0.002 -0.0338,0.003 -0.0507,0.004 l 0,0 c -0.0376,0 -0.0751,-0.006 -0.11084,-0.021 l 0,0 c -0.0883,-0.0387 -0.1315,-0.10807 -0.12962,-0.17453 l 0,0 c 9.3e-4,-0.0871 0.0582,-0.16792 0.1315,-0.21969 l 0,0 c 0.0582,-0.0419 0.13338,-0.0629 0.20927,-0.0629 l 0,0 c 0.0977,-10e-4 0.20477,0.0403 0.2399,0.1371 l 0,0 c 0.005,0.0152 0.007,0.0307 0.007,0.0452 l 0,0 c -0.002,0.0323 -0.0111,0.0661 -0.0263,0.10162 l 0,0 c 0.0733,-0.0355 0.1409,-0.0726 0.18599,-0.0984 l 0,0 c 0.0488,-0.029 0.11083,-0.071 0.17283,-0.11776 l 0,0 c -0.01,3.3e-4 -0.0186,6.5e-4 -0.0282,8.1e-4 l 0,0 c -0.0526,-1.6e-4 -0.1052,-0.008 -0.14841,-0.0355 l 0,0 c -0.0601,-0.0403 -0.0883,-0.10162 -0.0883,-0.15969 l 0,0 c 0.001,-0.0903 0.0582,-0.17888 0.14653,-0.22727 l 0,0 c 0.0582,-0.0307 0.13338,-0.0516 0.20777,-0.0516 l 0,0 c 0.0526,0 0.10708,0.0108 0.15217,0.0419 l 0,0 c 0.0451,0.0307 0.0714,0.0823 0.0714,0.14356 l 0,0 c 0,0.002 0,0.003 0,0.005 l 0,0 c -10e-4,0.0435 -0.0139,0.0871 -0.0338,0.12582 l 0,0 c 0.0751,-0.0242 0.14465,-0.05 0.18899,-0.071 l 0,0 c 0.0451,-0.0226 0.10708,-0.0564 0.16907,-0.0952 l 0,0 c -0.0564,-0.007 -0.10708,-0.0226 -0.15028,-0.0548 l 0,0 c -0.0545,-0.0435 -0.0827,-0.0968 -0.0808,-0.1484 l 0,0 c 0.002,-0.10646 0.0939,-0.18888 0.19274,-0.22808 l 0,0 c 0.0394,-0.0158 0.0845,-0.0226 0.12775,-0.0226 l 0,0 c 0.12398,-10e-4 0.26789,0.0629 0.27878,0.19743 l 0,0 c 0,0.003 -1.8e-4,0.004 0,0.004 l 0,0 c -0.002,0.0484 -0.0244,0.0919 -0.0601,0.13388 l 0,0 c 0.0789,-0.0178 0.15405,-0.0387 0.20233,-0.0548 l 0,0 c 0.0526,-0.0177 0.12399,-0.0436 0.1935,-0.0758 l 0,0 c -0.062,-0.0108 -0.1146,-0.0323 -0.15405,-0.071 l 0,0 c -0.0319,-0.0371 -0.047,-0.079 -0.047,-0.11937 l 0,0 c 0.002,-0.10968 0.0939,-0.20679 0.21134,-0.23969 l 0,0 c 0.0376,-0.0102 0.077,-0.0155 0.11836,-0.0155 l 0,0 c 0.0601,3.3e-4 0.12023,0.0105 0.17283,0.0387 l 0,0 c 0.0526,0.0274 0.0921,0.0807 0.0902,0.14517 l 0,0 c 0,0.0161 -0.002,0.0339 -0.007,0.0532 l 0,0 c -0.0133,0.0452 -0.0376,0.0855 -0.0714,0.12098 l 0,0 c 0.0789,-0.007 0.15217,-0.0178 0.20007,-0.0274 l 0,0 c 0.0488,-0.0116 0.11647,-0.0306 0.18899,-0.0548 l 0,0 c -0.0507,-0.0177 -0.0958,-0.0452 -0.12775,-0.0855 l 0,0 c -0.0282,-0.0387 -0.0432,-0.0774 -0.0432,-0.11614 l 0,0 c 0.004,-0.12743 0.13714,-0.20534 0.25549,-0.22421 l 0,0 c 0.0167,-0.003 0.0338,-0.004 0.0507,-0.004 l 0,0 c 0.13714,8e-4 0.29063,0.0806 0.29513,0.21905 l 0,0 c 0,0.0121 -10e-4,0.0242 -0.004,0.0371 l 0,0 c -0.0139,0.0484 -0.0488,0.0871 -0.0939,0.12097 l 0,0 c 3.8e-4,0 7.5e-4,0 10e-4,0 l 0,0 c 0.0808,0 0.15593,-0.005 0.20627,-0.008 l 0,0 c 0.0564,-0.005 0.13151,-0.015 0.20853,-0.0323 l 0,0 c -0.0582,-0.0242 -0.1052,-0.0565 -0.1315,-0.10324 l 0,0 c -0.0124,-0.0258 -0.0186,-0.0516 -0.0186,-0.0774 l 0,0 c 0.004,-0.13066 0.13901,-0.22841 0.27841,-0.23695 l 0,0 c 0.007,-4.9e-4 0.0146,-4.9e-4 0.0225,-4.9e-4 l 0,0 c 0.12399,9.7e-4 0.29794,0.0532 0.30584,0.19873 l 0,0 c 1.8e-4,0.0306 -0.009,0.0629 -0.0282,0.0952 l 0,0 c -0.0263,0.0403 -0.0601,0.0742 -0.10144,0.10323 l 0,0 c 0.077,0.009 0.15029,0.0139 0.1997,0.0152 l 0,0 c 0.0507,8.1e-4 0.12211,-0.005 0.19913,-0.0148 l 0,0 c -0.0451,-0.029 -0.0808,-0.0661 -0.10145,-0.10968 l 0,0 c -0.01,-0.0258 -0.0148,-0.05 -0.0148,-0.0742 l 0,0 c 0.004,-0.14679 0.1672,-0.21244 0.29645,-0.21244 l 0,0 c 0.007,-3.2e-4 0.0146,0 0.0207,3.2e-4 l 0,0 c 0.13901,0.009 0.27653,0.10485 0.28104,0.23486 l 0,0 c 0,0.0258 -0.007,0.0548 -0.0207,0.0806 l 0,0 c -0.0282,0.0419 -0.0752,0.0742 -0.12963,0.0984 l 0,0 c 0.0789,0.0177 0.15405,0.0306 0.20571,0.0339 l 0,0 c 0.0564,0.004 0.1315,0.01 0.21078,0.0106 l 0,0 c -0.047,-0.0339 -0.0827,-0.0742 -0.0958,-0.12582 l 0,0 c -0.002,-0.0103 -0.003,-0.021 -0.003,-0.0307 l 0,0 c 0.004,-0.14033 0.15593,-0.22356 0.29438,-0.22405 l 0,0 c 0.0173,0 0.0338,10e-4 0.0507,0.004 l 0,0 c 0.11647,0.0194 0.26188,0.0903 0.2692,0.2205 l 0,0 c 1.9e-4,0.0419 -0.0207,0.0855 -0.0601,0.12581 l 0,0 c -0.0357,0.0355 -0.0808,0.0613 -0.12774,0.079 l 0,0 c 0.0733,0.0258 0.14277,0.0452 0.18993,0.0565 l 0,0 c 0.0488,0.009 0.12023,0.0194 0.19781,0.0274 l 0,0 c -0.0357,-0.0371 -0.0601,-0.079 -0.0657,-0.12743 l 0,0 c -5.6e-4,-0.006 -0.001,-0.0134 -0.001,-0.021 l 0,0 c 0,-0.14517 0.14841,-0.20808 0.26996,-0.2084 l 0,0 c 0.0376,0 0.0733,0.005 0.10708,0.0142 l 0,0 c 0.11835,0.0339 0.21116,0.13066 0.21398,0.24018 l 0,0 c 1.8e-4,0.0419 -0.016,0.0855 -0.0507,0.12098 l 0,0 c -0.0394,0.0371 -0.0921,0.0581 -0.15028,0.0677 l 0,0 c 0.0714,0.0323 0.14089,0.0597 0.18936,0.0774 l 0,0 c 0.0526,0.0178 0.12587,0.0403 0.20402,0.0581 l 0,0 c -0.0357,-0.0403 -0.0582,-0.0839 -0.0601,-0.13227 l 0,0 c 0,-0.003 -5.7e-4,-0.008 7.5e-4,-0.0123 l 0,0 c 0.0156,-0.12904 0.15592,-0.19388 0.27953,-0.19275 l 0,0 c 0.0432,0 0.0864,0.007 0.12587,0.0226 l 0,0 c 0.0977,0.0403 0.20176,0.12259 0.20627,0.23308 l 0,0 c 7.6e-4,0.0548 -0.0338,0.10969 -0.10144,0.1484 l 0,0 c -0.0451,0.0258 -0.0939,0.0419 -0.14653,0.0484 l 0,0 c 0.0639,0.0403 0.12774,0.0742 0.17095,0.0952 l 0,0 c 0.0451,0.0194 0.11272,0.0468 0.18786,0.0694 l 0,0 c -0.0188,-0.0355 -0.0301,-0.071 -0.0319,-0.10807 l 0,0 c 0,-0.009 3.8e-4,-0.0194 0.003,-0.029 l 0,0 c 0.0207,-0.11936 0.13714,-0.17662 0.24121,-0.17356 l 0,0 c 0.0676,3.2e-4 0.13338,0.0177 0.18937,0.0484 l 0,0 c 0.0902,0.0484 0.14841,0.13872 0.14841,0.23018 l 0,0 c 7.5e-4,0.0581 -0.0282,0.11936 -0.092,0.15808 l 0,0 c -0.0432,0.0258 -0.0939,0.0323 -0.14653,0.0323 l 0,0 c -0.008,0 -0.0162,-1.6e-4 -0.0244,-6.5e-4 l 0,0 c 0.062,0.05 0.12398,0.0919 0.16719,0.11775 l 0,0 c 0.0488,0.029 0.1146,0.0661 0.18598,0.10162 l 0,0 c -0.0156,-0.0355 -0.0244,-0.0694 -0.0263,-0.10162 l 0,0 c 0,-0.0161 0.002,-0.0339 0.009,-0.05 l 0,0 c 0.0394,-0.0936 0.14466,-0.13549 0.24216,-0.13549 l 0,0 c 0.0733,3.2e-4 0.14841,0.021 0.20533,0.0613 l 0,0 c 0.0752,0.0532 0.14089,0.13872 0.14277,0.23228 l 0,0 c 0.003,0.0677 -0.0507,0.13872 -0.14841,0.16485 l 0,0 c -0.0357,0.0106 -0.0733,0.015 -0.10896,0.015 l 0,0 c -0.016,-1.6e-4 -0.0319,-9.7e-4 -0.0488,-0.003 l 0,0 c 0.0526,0.0548 0.10521,0.10485 0.14466,0.13549 l 0,0 c 0.0394,0.0307 0.0996,0.0726 0.16719,0.11453 l 0,0 c -0.005,-0.021 -0.008,-0.0419 -0.009,-0.0629 l 0,0 c 0,-0.0258 0.005,-0.0532 0.0177,-0.079 l 0,0 c 0.0413,-0.0839 0.12775,-0.1242 0.20853,-0.12259 l 0,0 c 0.0958,6.5e-4 0.18842,0.0436 0.25154,0.10162 l 0,0 c 0.0582,0.0548 0.0902,0.12904 0.0902,0.20147 l 0,0 c 0.002,0.0774 -0.0413,0.16259 -0.14465,0.19453 l 0,0 c -0.0207,0.006 -0.0413,0.008 -0.062,0.008 l 0,0 c -0.0357,-9.7e-4 -0.0714,-0.008 -0.11083,-0.0177 l 0,0 c 0.047,0.0629 0.0977,0.12097 0.1315,0.1613 l 0,0 c 0.0376,0.0419 0.0939,0.0968 0.15592,0.15162 l 0,0 c -0.003,-0.0194 -0.005,-0.0371 -0.005,-0.0548 l 0,0 c 0,-0.0355 0.007,-0.071 0.0301,-0.10162 l 0,0 c 0.0451,-0.0597 0.11835,-0.0855 0.19012,-0.0855 l 0,0 c 0.1052,8e-4 0.20984,0.0484 0.27277,0.1242 l 0,0 c 0.047,0.0581 0.0827,0.1355 0.0827,0.21276 l 0,0 c 0.003,0.0839 -0.0657,0.18034 -0.20289,0.18066 l 0,0 c -0.003,1.6e-4 -0.006,1.6e-4 -0.009,1.6e-4 l 0,0 c -0.0507,-9.7e-4 -0.0996,-0.0114 -0.14841,-0.029 l 0,0 c 0.0376,0.0694 0.077,0.13388 0.10708,0.17743 l 0,0 0,1.6e-4 -0.0939,0.0468 c -0.047,-0.071 -0.12023,-0.18695 -0.17095,-0.30406 l 0,0 z m -9.78191,-0.0613 c 0.0244,-0.0613 0.0413,-0.11775 0.0395,-0.16131 l 0,0 c 0,-0.0242 -0.005,-0.0419 -0.0115,-0.0516 l 0,0 c -0.0225,-0.0307 -0.0526,-0.0419 -0.0958,-0.0436 l 0,0 c -0.0639,-9.6e-4 -0.14653,0.0355 -0.18599,0.0871 l 0,0 c -0.0338,0.0387 -0.0564,0.0952 -0.0564,0.14033 l 0,0 c 0.004,0.0565 0.0207,0.0887 0.0977,0.10485 l 0,0 c 0.005,6.4e-4 0.0115,10e-4 0.0175,9.7e-4 l 0,0 c 0.0488,0.004 0.12023,-0.029 0.19482,-0.0774 l 0,0 z m 10.0885,0.0758 c 0.003,0 0.005,0 0.006,0 l 0,0 c 0.0827,-0.007 0.0902,-0.029 0.0958,-0.0871 l 0,0 c 7.5e-4,-0.05 -0.0282,-0.11776 -0.062,-0.15808 l 0,0 c -0.0394,-0.05 -0.12023,-0.0855 -0.1841,-0.0839 l 0,0 c -0.0432,6.5e-4 -0.0751,0.0124 -0.0996,0.0435 l 0,0 c -0.006,0.008 -0.012,0.0242 -0.012,0.05 l 0,0 c -7.5e-4,0.0419 0.0156,0.1 0.0413,0.16243 l 0,0 c 0.0733,0.0452 0.14841,0.0774 0.21453,0.0742 l 0,0 z m -9.80164,-0.81635 c -0.0357,0.0323 -0.0601,0.0855 -0.0601,0.13388 l 0,0 c 0.001,0.0532 0.0244,0.0919 0.0714,0.10968 l 0,0 c 0.006,0.002 0.0154,0.004 0.0282,0.004 l 0,0 c 0.047,0.002 0.12211,-0.0258 0.20214,-0.0661 l 0,0 c 0.0263,-0.0516 0.0432,-0.10162 0.0432,-0.14517 l 0,0 c -1.9e-4,-0.0178 -0.002,-0.0339 -0.007,-0.0484 l 0,0 c -0.0225,-0.0597 -0.0451,-0.0661 -0.0902,-0.0694 l 0,0 c -0.001,0 -0.002,0 -0.003,0 l 0,0 c -0.0582,0 -0.1409,0.0387 -0.18598,0.0823 l 0,0 z m 9.26323,0.24582 c 0.0117,0 0.0207,-10e-4 0.0263,-0.003 l 0,0 c 0.0488,-0.0157 0.0714,-0.0516 0.0714,-0.10646 l 0,0 c 5.7e-4,-0.0484 -0.0244,-0.10485 -0.0601,-0.13711 l 0,0 c -0.0432,-0.0419 -0.11647,-0.0726 -0.17095,-0.0726 l 0,0 c -0.047,0.002 -0.0789,0.0137 -0.10896,0.0678 l 0,0 c -0.006,0.0102 -0.009,0.0242 -0.009,0.0403 l 0,0 c -10e-4,0.0403 0.0182,0.0919 0.0488,0.14678 l 0,0 c 0.0789,0.0387 0.15405,0.0661 0.20214,0.0645 l 0,0 z m -8.65776,-0.73554 c -0.0526,0.0355 -0.092,0.0984 -0.092,0.14679 l 0,0 c 0.002,0.0355 0.0148,0.0645 0.0714,0.0903 l 0,0 c 0.0152,0.007 0.0357,0.0106 0.0601,0.0106 l 0,0 c 0.0432,9.7e-4 0.0977,-0.0113 0.15404,-0.0307 l 0,0 c 0.0507,-0.0661 0.0864,-0.13065 0.0827,-0.16985 l 0,0 c 0,-0.008 -7.5e-4,-0.0144 -0.003,-0.0177 l 0,0 c -0.0171,-0.0468 -0.0657,-0.0694 -0.13526,-0.071 l 0,0 c -3.8e-4,0 -5.6e-4,0 -7.5e-4,0 l 0,0 c -0.0507,-3.2e-4 -0.10332,0.0158 -0.13902,0.0419 l 0,0 z m 8.04383,0.24502 c 0.0263,0 0.0526,-0.003 0.0751,-0.01 l 0,0 c 0.0639,-0.021 0.0714,-0.0419 0.0733,-0.0758 l 0,0 c 0.002,-0.0484 -0.0488,-0.12421 -0.10332,-0.15969 l 0,0 c -0.0357,-0.0258 -0.0864,-0.0403 -0.13526,-0.0403 l 0,0 c -0.0676,9.7e-4 -0.11835,0.0242 -0.13902,0.0726 l 0,0 c -0.002,0.004 -0.003,0.009 -0.003,0.0177 l 0,0 c -0.003,0.0387 0.0319,0.10323 0.0845,0.16921 l 0,0 c 0.0526,0.0158 0.10333,0.0258 0.14841,0.0258 l 0,0 z m -7.20221,-0.42487 c 0.0507,-0.0565 0.0845,-0.11614 0.0827,-0.16985 l 0,0 c 0,-0.002 0,-0.003 0,-0.004 l 0,0 c -0.007,-0.0774 -0.0413,-0.0871 -0.11459,-0.0919 l 0,0 c -0.0507,-4.8e-4 -0.11084,0.0161 -0.15029,0.0387 l 0,0 c -0.0545,0.0274 -0.0958,0.0936 -0.0958,0.14679 l 0,0 c 5.6e-4,0.0355 0.0133,0.0629 0.0451,0.0855 l 0,0 c 0.012,0.008 0.0394,0.016 0.0808,0.0158 l 0,0 c 0.0432,1.6e-4 0.0958,-0.008 0.15029,-0.0194 l 0,0 z m 6.55672,0.0177 c 0.0394,0 0.0695,-0.007 0.0827,-0.0152 l 0,0 c 0.0319,-0.021 0.0451,-0.0468 0.0451,-0.0823 l 0,0 c 10e-4,-0.0548 -0.0432,-0.12259 -0.0977,-0.15001 l 0,0 c -0.0376,-0.021 -0.0864,-0.0339 -0.1315,-0.0339 l 0,0 c -0.0695,0.003 -0.11459,0.021 -0.13338,0.0968 l 0,0 c -5.6e-4,0.003 -0.001,0.007 -0.001,0.0124 l 0,0 c -0.004,0.0403 0.0338,0.0952 0.0864,0.15324 l 0,0 c 0.0545,0.0118 0.1052,0.0194 0.14841,0.0194 l 0,0 z m -0.76102,-0.31696 c 0.0695,0 0.1315,-0.0121 0.17471,-0.0387 l 0,0 c 0.0432,-0.0274 0.0526,-0.0484 0.0526,-0.071 l 0,0 c 0.005,-0.0468 -0.0733,-0.12259 -0.14278,-0.14839 l 0,0 c -0.0244,-0.009 -0.0507,-0.0144 -0.0808,-0.0144 l 0,0 c -0.0883,10e-4 -0.16531,0.0419 -0.17095,0.1113 l 0,0 1.9e-4,0 c -0.004,0.0306 0.0488,0.0968 0.12775,0.15808 l 0,0 c 0.0128,6.4e-4 0.0263,0.001 0.0376,0.001 l 0,0 z m -5.27175,-0.25647 c -0.0695,0.0258 -0.13151,0.0903 -0.12963,0.14195 l 0,0 c 5.7e-4,0.0242 0.0107,0.05 0.047,0.079 l 0,0 c 0.0263,0.021 0.0789,0.0339 0.14841,0.0339 l 0,0 c 0.0184,0 0.0376,-6.5e-4 0.0582,-0.002 l 0,0 c 0.0789,-0.0613 0.12963,-0.12904 0.12587,-0.16131 l 0,0 c 0,-0.004 0,-0.004 0,-0.002 l 0,0 c -0.002,-0.0629 -0.0789,-0.10485 -0.16908,-0.10646 l 0,0 c -0.0301,1.6e-4 -0.0582,0.006 -0.0827,0.015 l 0,0 z m 0.74054,-0.24502 c -0.0714,0.0177 -0.13713,0.0903 -0.13526,0.15001 l 0,0 c 0,0.0226 0.007,0.0419 0.0244,0.0629 l 0,0 c 0.0165,0.0242 0.10708,0.0468 0.21773,0.0468 l 0,0 c 0.0676,-0.0435 0.11836,-0.0952 0.12963,-0.1484 l 0,0 c 0.003,-0.0124 0.004,-0.0226 0.004,-0.0323 l 0,0 c -3.8e-4,-0.0613 -0.062,-0.0871 -0.15593,-0.0903 l 0,0 c -0.0301,-1.6e-4 -0.0601,0.004 -0.0845,0.0108 l 0,0 z m 3.64225,0.10485 c 0,0.004 3.8e-4,0.008 7.5e-4,0.0129 l 0,0 c 7.5e-4,0.0387 0.0526,0.0936 0.12775,0.14195 l 0,0 c 0.10708,-6.5e-4 0.19819,-0.0226 0.2181,-0.0468 l 0,0 c 0.0184,-0.0194 0.0263,-0.0387 0.0263,-0.0613 l 0,0 c 0.002,-0.0581 -0.0658,-0.13388 -0.13714,-0.15001 l 0,0 c -0.0225,-0.006 -0.0488,-0.01 -0.0733,-0.01 l 0,0 c -0.0921,0.003 -0.15968,0.0323 -0.16156,0.11453 l 0,0 z m -0.74618,-0.14034 c 0,0.005 5.6e-4,0.0105 10e-4,0.0161 l 0,0 c 7.5e-4,0.029 0.0695,0.0855 0.16344,0.12905 l 0,0 c 0.0827,-0.0129 0.15592,-0.0387 0.19537,-0.0807 l 0,0 c 0.0263,-0.0274 0.0338,-0.0468 0.0338,-0.0645 l 0,0 c 0.007,-0.0484 -0.0958,-0.11775 -0.18035,-0.12743 l 0,0 c -0.01,-0.002 -0.0188,-0.003 -0.0301,-0.003 l 0,0 c -0.092,1.6e-4 -0.1841,0.0613 -0.1841,0.12905 l 0,0 z m -2.13053,-0.12743 c -0.0845,0.0119 -0.17096,0.0726 -0.16532,0.13227 l 0,0 c 1.9e-4,0.0178 0.007,0.0403 0.0263,0.0661 l 0,0 c 0.0207,0.0355 0.0977,0.0597 0.19162,0.0726 l 0,0 c 0.092,-0.0436 0.15968,-0.0984 0.16344,-0.12743 l 0,0 c 0.002,-0.008 0.002,-0.014 0.002,-0.021 l 0,0 c 0,-0.0645 -0.0939,-0.1242 -0.18599,-0.1242 l 0,0 c -0.0107,0 -0.0207,8.1e-4 -0.0301,0.003 l 0,0 z m 0.79578,-0.0823 c -0.005,0 -0.01,3.2e-4 -0.0158,4.8e-4 l 0,0 c -0.0845,0.002 -0.18035,0.0774 -0.17659,0.14356 l 0,0 c 0,0.0128 0.003,0.0258 0.01,0.0403 l 0,0 c 0.009,0.0274 0.092,0.0677 0.19781,0.0919 l 0,0 c 0.0751,-0.029 0.13714,-0.0677 0.16344,-0.11775 l 0,0 c 0.0126,-0.021 0.0163,-0.0387 0.0167,-0.0532 l 0,0 c -3.7e-4,-0.029 -0.0188,-0.0516 -0.0582,-0.0726 l 0,0 c -0.0376,-0.0194 -0.0921,-0.0323 -0.13526,-0.0323 l 0,0 c -5.6e-4,0 -0.001,0 -0.002,0 l 0,0 z m 0.62407,0.0339 c -0.0357,0.0226 -0.0545,0.0484 -0.0545,0.0855 l 0,0 c 0,0.0128 0.002,0.0274 0.009,0.0452 l 0,0 c 0.01,0.0403 0.0751,0.079 0.16156,0.10968 l 0,0 c 0.10332,-0.0242 0.18786,-0.0548 0.19876,-0.0903 l 0,0 c 0.008,-0.0147 0.0109,-0.0274 0.0109,-0.0419 l 0,0 c 0.004,-0.0629 -0.0939,-0.13872 -0.18035,-0.14034 l 0,0 c -0.005,-4.8e-4 -0.009,-4.8e-4 -0.0131,-8e-4 l 0,0 c -3.8e-4,0 -7.5e-4,0 -10e-4,0 l 0,0 c -0.0451,0 -0.0958,0.0126 -0.12962,0.0339 l 0,0 z m 2.23461,2.89039 c -0.0639,-0.0419 -0.11836,-0.10001 -0.15217,-0.13388 l 0,0 c -0.0282,-0.0339 -0.0789,-0.0903 -0.1146,-0.1484 l 0,0 c -0.062,-0.0323 -0.12023,-0.0742 -0.1578,-0.10162 l 0,0 c -0.0319,-0.029 -0.0845,-0.0758 -0.12399,-0.12582 l 0,0 c -0.0714,-0.0242 -0.13338,-0.0645 -0.17471,-0.0855 l 0,0 c -0.0376,-0.0258 -0.10144,-0.0661 -0.15029,-0.11452 l 0,0 c -0.0658,-0.016 -0.1315,-0.0403 -0.17283,-0.0581 l 0,0 c -0.0376,-0.0194 -0.0977,-0.0516 -0.14841,-0.0887 l 0,0 c -3.8e-4,-3.2e-4 -5.6e-4,-6.4e-4 -7.5e-4,-9.7e-4 l 0,0 c -0.0751,-0.007 -0.14653,-0.0306 -0.19275,-0.0452 l 0,0 c -0.0376,-0.0144 -0.10332,-0.0387 -0.1578,-0.0694 l 0,0 c -0.004,-0.002 -0.008,-0.005 -0.0124,-0.007 l 0,0 c -0.0695,-8.1e-4 -0.13902,-0.0106 -0.1841,-0.0194 l 0,0 c -0.0432,-0.01 -0.10896,-0.029 -0.17096,-0.0564 l 0,0 c -0.0244,0.003 -0.0507,0.004 -0.0751,0.004 l 0,0 c -0.047,0 -0.0883,-0.004 -0.12023,-0.006 l 0,0 c -0.0451,-0.006 -0.12211,-0.0156 -0.18955,-0.0371 l 0,0 c -0.0657,0.0131 -0.13526,0.0161 -0.18035,0.0194 l 0,0 c -0.0432,-9.7e-4 -0.11271,-0.006 -0.17846,-0.0177 l 0,0 c -0.0695,0.0242 -0.14466,0.0323 -0.19275,0.0371 l 0,0 c -0.0282,0.002 -0.0676,0.005 -0.11084,0.005 l 0,0 c -0.0263,-3.2e-4 -0.0545,-9.7e-4 -0.0808,-0.004 l 0,0 c -3.7e-4,0 -7.5e-4,1.6e-4 -10e-4,3.2e-4 l 0,0 c -0.0601,0.0258 -0.12774,0.0468 -0.17095,0.0565 l 0,0 c -0.0432,0.008 -0.11272,0.0177 -0.18035,0.0194 l 0,0 c -0.0601,0.0371 -0.1315,0.0597 -0.17471,0.0774 l 0,0 c -0.0432,0.0139 -0.11835,0.0355 -0.19068,0.0435 l 0,0 c -5.6e-4,3.3e-4 -10e-4,6.5e-4 -0.002,0.001 l 0,0 c -0.0507,0.0371 -0.11083,0.071 -0.15029,0.0903 l 0,0 c -0.0394,0.0177 -0.1052,0.0419 -0.17095,0.0581 l 0,0 c -0.0488,0.05 -0.11272,0.0903 -0.15217,0.11614 l 0,0 c -0.0394,0.021 -0.1052,0.0597 -0.17283,0.0839 l 0,0 c -0.0413,0.05 -0.092,0.0968 -0.12586,0.12743 l 0,0 c -0.0357,0.0258 -0.0939,0.0677 -0.15405,0.1 l 0,0 c -0.0338,0.0613 -0.0864,0.11453 -0.11647,0.15001 l 0,0 c -0.0338,0.0323 -0.0883,0.0887 -0.15029,0.13066 l 0,0 c -0.0263,0.0597 -0.062,0.11936 -0.0864,0.15808 l 0,0 -0.0488,-0.0242 c 0.0152,-0.0226 0.0357,-0.0548 0.0545,-0.0887 l 0,0 c -0.0207,0.008 -0.0432,0.0131 -0.0639,0.0137 l 0,0 c -0.007,0 -0.0126,-3.3e-4 -0.0188,-0.002 l 0,0 c -0.0658,-0.01 -0.0977,-0.0581 -0.0958,-0.10001 l 0,0 c 0,-0.0355 0.0154,-0.0726 0.0394,-0.1 l 0,0 c 0.0319,-0.0387 0.0864,-0.0645 0.14089,-0.0645 l 0,0 c 0.0357,-4.9e-4 0.0751,0.0137 0.0958,0.0452 l 0,0 c 0.0107,0.0157 0.0137,0.0323 0.0137,0.05 l 0,0 c 0,0.009 -9.4e-4,0.0178 -0.002,0.0274 l 0,0 c 0.0338,-0.0274 0.062,-0.0565 0.0808,-0.0758 l 0,0 c 0.0188,-0.0226 0.0451,-0.0516 0.0695,-0.0823 l 0,0 c -0.0188,0.006 -0.0376,0.009 -0.0564,0.01 l 0,0 c -0.0116,0 -0.0225,-10e-4 -0.0357,-0.005 l 0,0 c -0.0507,-0.0177 -0.0733,-0.0613 -0.0714,-0.1 l 0,0 c 0,-0.0371 0.016,-0.0742 0.0451,-0.10162 l 0,0 c 0.0338,-0.0306 0.0845,-0.0565 0.13714,-0.0565 l 0,0 c 0.0432,-0.002 0.0883,0.0242 0.0996,0.071 l 0,0 c 0.004,0.0123 0.006,0.0242 0.005,0.0371 l 0,0 c 0,0.0111 -10e-4,0.0226 -0.004,0.0323 l 0,0 c 0.0357,-0.021 0.0658,-0.0436 0.0864,-0.0597 l 0,0 c 0.0207,-0.0161 0.047,-0.0419 0.0733,-0.0694 l 0,0 c -0.009,0.001 -0.0175,0.002 -0.0263,0.002 l 0,0 c -0.0188,0 -0.0394,-0.003 -0.0564,-0.0106 l 0,0 c -0.0451,-0.0194 -0.0676,-0.0548 -0.0657,-0.0887 l 0,0 c 3.8e-4,-0.0452 0.0301,-0.0855 0.0676,-0.11291 l 0,0 c 0.0301,-0.021 0.0695,-0.0323 0.10708,-0.0323 l 0,0 c 0.0488,-6.5e-4 0.1052,0.021 0.12211,0.071 l 0,0 c 0.003,0.008 0.004,0.0156 0.004,0.0242 l 0,0 c -7.5e-4,0.0161 -0.006,0.0339 -0.0133,0.0516 l 0,0 c 0.0376,-0.0177 0.0714,-0.0371 0.0958,-0.05 l 0,0 c 0.0244,-0.0147 0.0564,-0.0355 0.0883,-0.0613 l 0,0 c -0.005,3.2e-4 -0.009,4.8e-4 -0.0143,4.8e-4 l 0,0 c -0.0263,0 -0.0526,-0.004 -0.0752,-0.0177 l 0,0 c -0.0319,-0.021 -0.0451,-0.0516 -0.0451,-0.0806 l 0,0 c 3.8e-4,-0.0468 0.0301,-0.0919 0.0751,-0.11614 l 0,0 c 0.0301,-0.0161 0.0676,-0.0258 0.10708,-0.0274 l 0,0 c 0.0263,0 0.0545,0.006 0.077,0.021 l 0,0 c 0.0225,0.0161 0.0376,0.0419 0.0376,0.0742 l 0,0 c 0,6.4e-4 0,10e-4 0,0.002 l 0,0 c -7.5e-4,0.0226 -0.007,0.0436 -0.0177,0.0645 l 0,0 c 0.0394,-0.0124 0.0733,-0.0258 0.0958,-0.0355 l 0,0 c 0.0225,-0.0113 0.0545,-0.029 0.0864,-0.0484 l 0,0 c -0.0282,-0.003 -0.0545,-0.0115 -0.077,-0.0274 l 0,0 c -0.0282,-0.021 -0.0413,-0.05 -0.0413,-0.0758 l 0,0 c 10e-4,-0.0548 0.0488,-0.0968 0.0996,-0.11613 l 0,0 c 0.0207,-0.008 0.0432,-0.0119 0.0657,-0.0119 l 0,0 c 0.0639,-6.5e-4 0.13714,0.0323 0.14278,0.10162 l 0,0 c 0,0.002 0,0.002 0,0.002 l 0,0 c -0.001,0.0242 -0.013,0.0468 -0.0301,0.0677 l 0,0 c 0.0413,-0.009 0.0789,-0.0194 0.10332,-0.0274 l 0,0 c 0.0263,-0.009 0.0639,-0.0226 0.0996,-0.0387 l 0,0 c -0.0319,-0.006 -0.0582,-0.0161 -0.0789,-0.0371 l 0,0 c -0.0163,-0.0194 -0.0244,-0.0403 -0.0244,-0.0613 l 0,0 c 0.001,-0.0564 0.047,-0.10646 0.10896,-0.12259 l 0,0 c 0.0188,-0.005 0.0394,-0.008 0.0601,-0.008 l 0,0 c 0.0301,0 0.062,0.005 0.0883,0.0194 l 0,0 c 0.0263,0.0143 0.047,0.0419 0.047,0.0742 l 0,0 c 0,0.009 -0.001,0.0177 -0.004,0.0274 l 0,0 c -0.007,0.0226 -0.0188,0.0435 -0.0357,0.0613 l 0,0 c 0.0413,-0.004 0.077,-0.009 0.10144,-0.0139 l 0,0 c 0.0244,-0.006 0.0601,-0.0156 0.0977,-0.029 l 0,0 c -0.0263,-0.01 -0.0488,-0.0226 -0.0658,-0.0435 l 0,0 c -0.0145,-0.0194 -0.0225,-0.0403 -0.0225,-0.0597 l 0,0 c 0.002,-0.0645 0.0695,-0.10484 0.13151,-0.11452 l 0,0 c 0.009,-0.001 0.0175,-0.002 0.0263,-0.002 l 0,0 c 0.0695,3.2e-4 0.14841,0.0419 0.15216,0.1113 l 0,0 c 0,0.006 -7.5e-4,0.0124 -0.002,0.0194 l 0,0 c -0.007,0.0242 -0.0244,0.0452 -0.047,0.0613 l 0,0 c 0,0 3.8e-4,0 5.7e-4,0 l 0,0 c 0.0413,0 0.0789,-0.002 0.1052,-0.004 l 0,0 c 0.0282,-0.003 0.0676,-0.008 0.10708,-0.016 l 0,0 c -0.0301,-0.0123 -0.0526,-0.029 -0.0676,-0.0532 l 0,0 c -0.006,-0.0129 -0.009,-0.0258 -0.009,-0.0387 l 0,0 c 0.002,-0.0677 0.0714,-0.11614 0.14277,-0.12098 l 0,0 c 0.004,-3.2e-4 0.007,-3.2e-4 0.0115,-3.2e-4 l 0,0 c 0.062,4.8e-4 0.15217,0.0274 0.15593,0.10162 l 0,0 c 1.8e-4,0.0158 -0.005,0.0323 -0.0141,0.0484 l 0,0 c -0.0131,0.021 -0.0319,0.0387 -0.0526,0.0532 l 0,0 c 0.0394,0.005 0.077,0.007 0.10144,0.008 l 0,0 c 0.0263,3.2e-4 0.062,-0.002 0.10145,-0.007 l 0,0 c -0.0225,-0.0152 -0.0413,-0.0339 -0.0526,-0.0564 l 0,0 c -0.005,-0.0131 -0.007,-0.0258 -0.007,-0.0371 l 0,0 c 0.002,-0.0758 0.0864,-0.10808 0.15216,-0.10969 l 0,0 c 0.004,0 0.008,0 0.0107,1.6e-4 l 0,0 c 0.0714,0.005 0.1409,0.0532 0.14466,0.12098 l 0,0 c 0,0.0137 -0.004,0.0274 -0.0109,0.0419 l 0,0 c -0.0147,0.021 -0.0376,0.0371 -0.0657,0.05 l 0,0 c 0.0394,0.009 0.0789,0.0152 0.1052,0.0177 l 0,0 c 0.0282,0.002 0.0676,0.005 0.10708,0.005 l 0,0 c -0.0244,-0.0177 -0.0432,-0.0371 -0.0488,-0.0629 l 0,0 c -0.001,-0.005 -0.002,-0.0106 -0.002,-0.0161 l 0,0 c 0.002,-0.071 0.0789,-0.11453 0.15029,-0.11453 l 0,0 c 0.009,0 0.0177,8.1e-4 0.0263,0.002 l 0,0 c 0.0582,0.0102 0.13338,0.0468 0.13714,0.11291 l 0,0 c 0,0.021 -0.0105,0.0436 -0.0319,0.0645 l 0,0 c -0.0188,0.0178 -0.0413,0.0307 -0.0657,0.0403 l 0,0 c 0.0376,0.0127 0.0733,0.0226 0.0977,0.029 l 0,0 c 0.0244,0.005 0.062,0.0102 0.10144,0.0137 l 0,0 c -0.0182,-0.0194 -0.0301,-0.0403 -0.0338,-0.0645 l 0,0 c -1.9e-4,-0.003 -1.9e-4,-0.007 -1.9e-4,-0.0105 l 0,0 c 0,-0.0742 0.0751,-0.10646 0.13902,-0.10646 l 0,0 c 0.0188,0 0.0376,0.002 0.0545,0.007 l 0,0 c 0.0601,0.0177 0.10896,0.0661 0.10896,0.12259 l 0,0 c 1.9e-4,0.021 -0.008,0.0436 -0.0263,0.0613 l 0,0 c -0.0207,0.0194 -0.047,0.029 -0.077,0.0355 l 0,0 c 0.0357,0.0161 0.0714,0.0307 0.0977,0.0387 l 0,0 c 0.0263,0.009 0.0639,0.021 0.1052,0.029 l 0,0 c -0.0179,-0.021 -0.0301,-0.0436 -0.0319,-0.0677 l 0,0 c 0,-10e-4 0,-0.004 5.6e-4,-0.006 l 0,0 c 0.008,-0.0661 0.0789,-0.10001 0.14278,-0.0984 l 0,0 c 0.0225,0 0.0451,0.004 0.0639,0.0116 l 0,0 c 0.0507,0.021 0.10332,0.0629 0.1052,0.11936 l 0,0 c 1.9e-4,0.0274 -0.0177,0.0565 -0.0526,0.0758 l 0,0 c -0.0225,0.0134 -0.0488,0.021 -0.0752,0.0242 l 0,0 c 0.0338,0.021 0.0657,0.0387 0.0883,0.0484 l 0,0 c 0.0225,0.0105 0.0582,0.0242 0.0958,0.0355 l 0,0 c -0.01,-0.0178 -0.016,-0.0371 -0.0169,-0.0549 l 0,0 c 0,-0.005 5.7e-4,-0.01 0.002,-0.0152 l 0,0 c 0.0109,-0.0613 0.0695,-0.0903 0.12399,-0.0887 l 0,0 c 0.0338,1.7e-4 0.0695,0.009 0.0958,0.0242 l 0,0 c 0.0451,0.0258 0.0752,0.071 0.077,0.11775 l 0,0 c 3.8e-4,0.029 -0.0141,0.0613 -0.047,0.0806 l 0,0 c -0.0225,0.0127 -0.047,0.0161 -0.0751,0.0161 l 0,0 c -0.004,0 -0.008,0 -0.0126,-3.2e-4 l 0,0 c 0.0319,0.0258 0.062,0.0468 0.0864,0.0597 l 0,0 c 0.0244,0.0144 0.0582,0.0339 0.0958,0.0516 l 0,0 c -0.008,-0.0178 -0.0131,-0.0355 -0.0139,-0.0516 l 0,0 c 0,-0.009 10e-4,-0.0177 0.005,-0.0258 l 0,0 c 0.0188,-0.0484 0.0733,-0.0694 0.12399,-0.0694 l 0,0 c 0.0376,0 0.0751,0.0106 0.1052,0.0323 l 0,0 c 0.0376,0.0274 0.0714,0.071 0.0733,0.11937 l 0,0 c 10e-4,0.0355 -0.0263,0.071 -0.0752,0.0839 l 0,0 c -0.0184,0.005 -0.0376,0.008 -0.0564,0.008 l 0,0 c -0.008,0 -0.0163,-3.3e-4 -0.0244,-10e-4 l 0,0 c 0.0263,0.029 0.0545,0.0532 0.0733,0.0694 l 0,0 c 0.0207,0.016 0.0507,0.0371 0.0845,0.0581 l 0,0 c -0.003,-0.0108 -0.004,-0.0226 -0.004,-0.0323 l 0,0 c 0,-0.0137 0.002,-0.0274 0.009,-0.0403 l 0,0 c 0.0207,-0.0419 0.0657,-0.0645 0.10708,-0.0629 l 0,0 c 0.0488,1.6e-4 0.0958,0.0226 0.12963,0.0516 l 0,0 c 0.0301,0.0274 0.0451,0.0661 0.0451,0.10323 l 0,0 c 7.5e-4,0.0403 -0.0207,0.0839 -0.0733,0.10001 l 0,0 c -0.0105,0.003 -0.0207,0.004 -0.0319,0.004 l 0,0 c -0.0179,-4.8e-4 -0.0376,-0.004 -0.0564,-0.009 l 0,0 c 0.0244,0.0323 0.0488,0.0613 0.0676,0.0823 l 0,0 c 0.0188,0.021 0.047,0.05 0.0808,0.0774 l 0,0 c -0.002,-0.01 -0.002,-0.0194 -0.003,-0.0274 l 0,0 c 0,-0.0178 0.003,-0.0371 0.0158,-0.0516 l 0,0 c 0.0225,-0.0307 0.0601,-0.0436 0.0977,-0.0436 l 0,0 c 0.0526,3.2e-4 0.10708,0.0242 0.13901,0.0629 l 0,0 c 0.0244,0.029 0.0413,0.0694 0.0432,0.10808 l 0,0 c 10e-4,0.0436 -0.0338,0.0919 -0.10332,0.0919 l 0,0 c -0.002,1.6e-4 -0.003,1.6e-4 -0.005,1.6e-4 l 0,0 c -0.0263,-6.4e-4 -0.0507,-0.006 -0.0751,-0.0145 l 0,0 c 0.0188,0.0355 0.0395,0.0677 0.0545,0.0903 l 0,0 0,0 -0.0488,0.0242 c -0.0244,-0.0371 -0.062,-0.0968 -0.0864,-0.15646 l 0,0 z m -5.00575,-0.0323 c 0.0126,-0.0323 0.0207,-0.0613 0.0207,-0.0823 l 0,0 c 0,-0.0127 -0.003,-0.021 -0.006,-0.0258 l 0,0 c -0.0116,-0.0158 -0.0263,-0.021 -0.0488,-0.0226 l 0,0 c -0.0319,-4.8e-4 -0.0751,0.0178 -0.0958,0.0436 l 0,0 c -0.0169,0.0194 -0.0282,0.0484 -0.0282,0.0726 l 0,0 c 0.002,0.029 0.0105,0.0452 0.0488,0.0532 l 0,0 c 0.003,3.2e-4 0.006,6.5e-4 0.009,6.5e-4 l 0,0 c 0.0244,0.002 0.062,-0.0155 0.0996,-0.0403 l 0,0 z m 5.16261,0.0387 c 10e-4,0 0.002,0 0.003,0 l 0,0 c 0.0413,-0.004 0.047,-0.015 0.0488,-0.0452 l 0,0 c 3.7e-4,-0.0258 -0.0139,-0.0597 -0.0319,-0.0807 l 0,0 c -0.0207,-0.0258 -0.062,-0.0436 -0.0939,-0.0436 l 0,0 c -0.0225,3.3e-4 -0.0394,0.006 -0.0507,0.0226 l 0,0 c -0.003,0.004 -0.006,0.0124 -0.006,0.0258 l 0,0 c -5.7e-4,0.021 0.008,0.0516 0.0207,0.0823 l 0,0 c 0.0376,0.0242 0.077,0.0403 0.11084,0.0387 l 0,0 z m -5.01589,-0.41745 c -0.0188,0.0161 -0.0301,0.0435 -0.0301,0.0677 l 0,0 c 3.8e-4,0.0274 0.012,0.0468 0.0376,0.0565 l 0,0 c 0.003,9.7e-4 0.008,0.002 0.0139,0.002 l 0,0 c 0.0244,10e-4 0.062,-0.0132 0.10333,-0.0339 l 0,0 c 0.0135,-0.0258 0.0225,-0.0516 0.0207,-0.0742 l 0,0 c 0,-0.009 -9.4e-4,-0.0177 -0.003,-0.0242 l 0,0 c -0.0115,-0.0306 -0.0225,-0.0339 -0.047,-0.0355 l 0,0 c -3.8e-4,0 -7.6e-4,0 -0.001,0 l 0,0 c -0.0301,-1.6e-4 -0.0714,0.0194 -0.0939,0.0419 l 0,0 z m 4.73992,0.12582 c 0.006,0 0.0107,-9.7e-4 0.0133,-0.002 l 0,0 c 0.0244,-0.008 0.0357,-0.0274 0.0376,-0.0548 l 0,0 c 3.8e-4,-0.0242 -0.012,-0.0532 -0.0301,-0.0694 l 0,0 c -0.0225,-0.021 -0.0601,-0.0371 -0.0883,-0.0371 l 0,0 c -0.0244,9.7e-4 -0.0413,0.007 -0.0545,0.0339 l 0,0 c -0.003,0.005 -0.005,0.0119 -0.005,0.021 l 0,0 c -3.7e-4,0.0194 0.01,0.0468 0.0244,0.0742 l 0,0 c 0.0413,0.021 0.0789,0.0339 0.10333,0.0323 l 0,0 z m -4.43032,-0.37439 c -0.0263,0.0177 -0.047,0.05 -0.047,0.0758 l 0,0 c 10e-4,0.0178 0.007,0.0323 0.0357,0.0468 l 0,0 c 0.008,0.004 0.0184,0.005 0.0319,0.005 l 0,0 c 0.0225,3.2e-4 0.0507,-0.006 0.0789,-0.0156 l 0,0 c 0.0263,-0.0339 0.0432,-0.0661 0.0432,-0.0871 l 0,0 c 0,-0.004 -5.6e-4,-0.007 -10e-4,-0.01 l 0,0 c -0.009,-0.0242 -0.0338,-0.0355 -0.0695,-0.0371 l 0,0 c 0,0 -1.9e-4,0 -3.8e-4,0 l 0,0 c -0.0263,0 -0.0545,0.008 -0.0714,0.021 l 0,0 z m 4.11622,0.12582 c 0.0139,0 0.0263,-0.002 0.0376,-0.005 l 0,0 c 0.0319,-0.0108 0.0357,-0.021 0.0376,-0.0387 l 0,0 c 0.001,-0.0242 -0.0263,-0.0629 -0.0526,-0.0823 l 0,0 c -0.0178,-0.0131 -0.0451,-0.021 -0.0695,-0.021 l 0,0 c -0.0338,6.5e-4 -0.0601,0.0121 -0.0714,0.0371 l 0,0 c -9.4e-4,0.002 -0.001,0.005 -0.001,0.009 l 0,0 c -0.002,0.021 0.0167,0.0532 0.0432,0.0871 l 0,0 c 0.0263,0.009 0.0526,0.0137 0.0751,0.0132 l 0,0 z m -3.68527,-0.21728 c 0.0263,-0.029 0.0432,-0.0597 0.0432,-0.0871 l 0,0 c 0,-6.5e-4 0,-0.002 0,-0.002 l 0,0 c -0.003,-0.0403 -0.0207,-0.0452 -0.0582,-0.0468 l 0,0 c -0.0263,-1.6e-4 -0.0564,0.008 -0.077,0.0194 l 0,0 c -0.0282,0.014 -0.0488,0.0484 -0.0488,0.0758 l 0,0 c 3.8e-4,0.0177 0.007,0.0323 0.0225,0.0436 l 0,0 c 0.006,0.004 0.0207,0.008 0.0413,0.008 l 0,0 c 0.0225,-3.2e-4 0.0488,-0.004 0.077,-0.0105 l 0,0 z m 3.3552,0.009 c 0.0207,0 0.0357,-0.004 0.0432,-0.008 l 0,0 c 0.0167,-0.0106 0.0225,-0.0242 0.0225,-0.0419 l 0,0 c 3.7e-4,-0.0274 -0.0225,-0.0629 -0.0507,-0.0774 l 0,0 c -0.0188,-0.0105 -0.0451,-0.0177 -0.0676,-0.0177 l 0,0 c -0.0357,0.002 -0.0582,0.0106 -0.0676,0.05 l 0,0 c -5.7e-4,10e-4 -5.7e-4,0.004 -5.7e-4,0.006 l 0,0 c -0.002,0.021 0.0167,0.0484 0.0451,0.079 l 0,0 c 0.0282,0.006 0.0545,0.01 0.0752,0.01 l 0,0 z m -0.38944,-0.16276 c 0.0357,0 0.0676,-0.006 0.0902,-0.0193 l 0,0 c 0.0225,-0.0139 0.0263,-0.0242 0.0263,-0.0371 l 0,0 c 0.002,-0.0242 -0.0376,-0.0629 -0.0733,-0.0758 l 0,0 c -0.0118,-0.005 -0.0263,-0.007 -0.0413,-0.007 l 0,0 c -0.0451,3.2e-4 -0.0845,0.021 -0.0883,0.0564 l 0,0 0,0 c -0.002,0.0155 0.0244,0.05 0.0657,0.0806 l 0,0 c 0.006,4.9e-4 0.0128,6.5e-4 0.0188,6.5e-4 l 0,0 z m -2.69768,-0.13226 c -0.0357,0.0132 -0.0676,0.0468 -0.0657,0.0726 l 0,0 c 1.9e-4,0.0127 0.005,0.0258 0.0244,0.0403 l 0,0 c 0.013,0.0106 0.0413,0.0177 0.077,0.0177 l 0,0 c 0.01,0 0.0188,-4.8e-4 0.0301,-0.001 l 0,0 c 0.0394,-0.0323 0.0676,-0.0661 0.0657,-0.0823 l 0,0 c 0,-0.002 0,-0.002 0,-6.5e-4 l 0,0 c -10e-4,-0.0323 -0.0413,-0.0548 -0.0864,-0.0548 l 0,0 c -0.015,-3.2e-4 -0.0301,0.003 -0.0413,0.007 l 0,0 z m 0.37873,-0.12582 c -0.0357,0.009 -0.0695,0.0468 -0.0695,0.0774 l 0,0 c 0,0.0113 0.004,0.021 0.0126,0.0323 l 0,0 c 0.008,0.0129 0.0564,0.0242 0.11083,0.0242 l 0,0 c 0.0338,-0.0226 0.0601,-0.0484 0.0657,-0.0758 l 0,0 c 10e-4,-0.006 0.002,-0.0119 0.002,-0.0161 l 0,0 c 0,-0.0306 -0.0319,-0.0435 -0.0789,-0.0452 l 0,0 c -0.0156,1.6e-4 -0.0319,0.002 -0.0432,0.006 l 0,0 z m 1.86414,0.0532 c 0,0.002 0,0.004 1.9e-4,0.007 l 0,0 c 3.7e-4,0.0194 0.0263,0.0468 0.0657,0.0726 l 0,0 c 0.0545,-3.2e-4 0.10144,-0.0113 0.11083,-0.0242 l 0,0 c 0.009,-0.01 0.013,-0.0194 0.013,-0.0306 l 0,0 c 0.001,-0.0307 -0.0338,-0.0677 -0.0714,-0.0774 l 0,0 c -0.0113,-0.003 -0.0244,-0.005 -0.0376,-0.005 l 0,0 c -0.047,0.002 -0.0827,0.0161 -0.0827,0.0581 l 0,0 z m -0.38211,-0.0726 c 0,0.003 3.8e-4,0.005 10e-4,0.008 l 0,0 c 1.9e-4,0.015 0.0338,0.0436 0.0845,0.0661 l 0,0 c 0.0432,-0.007 0.0789,-0.0194 0.0996,-0.0403 l 0,0 c 0.0135,-0.0137 0.0169,-0.0242 0.0171,-0.0339 l 0,0 c 0.004,-0.0242 -0.0488,-0.0597 -0.0921,-0.0661 l 0,0 c -0.005,-8.1e-4 -0.0101,-0.001 -0.0156,-0.001 l 0,0 c -0.047,0 -0.0939,0.0323 -0.0958,0.0661 l 0,0 z m -1.09034,-0.0645 c -0.0432,0.006 -0.0864,0.0371 -0.0845,0.0678 l 0,0 c 0,0.009 0.003,0.021 0.0131,0.0339 l 0,0 c 0.0109,0.0177 0.0507,0.0306 0.0977,0.0371 l 0,0 c 0.047,-0.0226 0.0827,-0.05 0.0827,-0.0661 l 0,0 c 7.5e-4,-0.004 9.3e-4,-0.007 9.3e-4,-0.0103 l 0,0 c 0,-0.0323 -0.0488,-0.0645 -0.0958,-0.0645 l 0,0 c -0.005,-1.6e-4 -0.0109,3.3e-4 -0.0162,10e-4 l 0,0 z m 0.40747,-0.0419 c -0.002,0 -0.005,0 -0.008,3.3e-4 l 0,0 c -0.0432,10e-4 -0.0921,0.0387 -0.0902,0.0726 l 0,0 c 0,0.006 10e-4,0.0134 0.005,0.021 l 0,0 c 0.004,0.0144 0.047,0.0355 0.10144,0.0468 l 0,0 c 0.0394,-0.0152 0.0714,-0.0355 0.0845,-0.0613 l 0,0 c 0.007,-0.011 0.009,-0.0194 0.009,-0.0274 l 0,0 c 0,-0.015 -0.01,-0.0258 -0.0301,-0.0371 l 0,0 c -0.0188,-0.0102 -0.047,-0.0161 -0.0695,-0.0161 l 0,0 c -7.5e-4,0 -9.4e-4,0 -0.001,0 l 0,0 z m 0.31936,0.0178 c -0.0182,0.0116 -0.0282,0.0242 -0.0282,0.0435 l 0,0 c 0,0.006 10e-4,0.014 0.005,0.0226 l 0,0 c 0.005,0.021 0.0395,0.0403 0.0827,0.0565 l 0,0 c 0.0526,-0.0124 0.0958,-0.029 0.10144,-0.0468 l 0,0 c 0.004,-0.007 0.006,-0.0144 0.006,-0.021 l 0,0 c 0.002,-0.0323 -0.0488,-0.071 -0.092,-0.0726 l 0,0 c -0.002,-3.2e-4 -0.004,-3.2e-4 -0.007,-3.2e-4 l 0,0 -1.8e-4,0 0,0 c -0.0225,0 -0.0488,0.006 -0.0676,0.0177 l 0,0 z m 1.44221,12.74002 0,-5.21509 c 0,-0.74457 -0.70298,-1.348 -1.56996,-1.348 -0.86716,0 -1.56995,0.60343 -1.56995,1.348 l 0,5.21509 3.13991,0 z m -1.09542,0 0,-7.86481 c 0,-0.42406 -0.21228,-0.76748 -0.47454,-0.76748 -0.26225,0 -0.47472,0.34342 -0.47472,0.76748 l 0,7.86481 0.94926,0 z m 0.87637,-8.63229 c 0,-0.32889 -0.60491,-0.59569 -1.35091,-0.59569 -0.7458,0 -1.35072,0.2668 -1.35072,0.59569 0,0.3289 0.60492,0.5957 1.35072,0.5957 0.746,0 1.35091,-0.2668 1.35091,-0.5957 z"
         id="_109276232"
         style="fill:none;stroke:#1f1a17;stroke-width:0.1" />
      <path
         d="m 348.73091,511.52827 c -0.32481,0 -0.60773,0.0774 -0.76103,0.19211 l 0.21867,0.0968 c 0.29832,0.13227 0.7862,0.13227 1.08452,0 l 0.21867,-0.0968 c -0.15292,-0.11469 -0.43602,-0.19211 -0.76083,-0.19211 z m -3.03546,-2.72328 6.0711,-0.62989 0,-0.40503 c 0,-0.079 -0.0207,-0.15324 -0.0582,-0.22066 l -6.01324,0.6236 0,0.63198 z m 0,1.19106 6.07073,-0.62973 0,-0.63166 -6.07073,0.62973 0,0.63166 z m 6.07073,0.19566 0,-0.26567 -5.96572,0.61876 c 0.0996,0.17437 0.25775,0.33083 0.43697,0.41003 l 0.32274,0.14356 5.08484,-0.52762 c 0.0751,-0.12259 0.1221,-0.25518 0.1221,-0.37825 z"
         id="_109276160"
         style="fill:#333333;fill-rule:evenodd" />
    </g>
  </g>
</svg>
