<?xml version="1.0" encoding="UTF-8" standalone="no"?>
<!-- Created with Inkscape (http://www.inkscape.org/) -->

<svg
   xmlns:dc="http://purl.org/dc/elements/1.1/"
   xmlns:cc="http://creativecommons.org/ns#"
   xmlns:rdf="http://www.w3.org/1999/02/22-rdf-syntax-ns#"
   xmlns:svg="http://www.w3.org/2000/svg"
   xmlns="http://www.w3.org/2000/svg"
   version="1.1"
   width="210mm"
   height="297mm"
   id="svg4359">
  <defs
     id="defs4361" />
  <metadata
     id="metadata4364">
    <rdf:RDF>
      <cc:Work
         rdf:about="">
        <dc:format>image/svg+xml</dc:format>
        <dc:type
           rdf:resource="http://purl.org/dc/dcmitype/StillImage" />
        <dc:title></dc:title>
      </cc:Work>
    </rdf:RDF>
  </metadata>
  <g
     id="HAS_ID_18">
    <path
       d="m 38.838452,255.36546 1.0881,2.177 -2.1769,0 1.0888,-2.177 z m -0.1764,3.9372 0,-1.8741 0.3528,0 0,1.8741 -0.3528,0 z"
       id="arrowUpRollo"
       style="opacity:0;fill:#1f1a17;fill-rule:nonzero;stroke:none" />
    <path
       d="m 38.859452,268.90233 -1.0881,-2.177 2.1769,0 -1.0888,2.177 z m 0.1764,-3.9372 0,1.8741 -0.3528,0 0,-1.8741 0.3528,0 z"
       id="arrowDownRollo"
       style="opacity:0;fill:#1f1a17;fill-rule:nonzero;stroke:none" />
    <path
       d="m 48.115872,244.73624 -1.179076,0 0,34.71474 1.179076,0 0,-34.71474 z m -1.347529,0 -1.179106,0 0,34.71474 1.179106,0 0,-34.71474 z m -1.347528,0 -1.179108,0 0,34.71474 1.179108,0 0,-34.71474 z m -1.34756,0 -1.179076,0 0,34.71474 1.179076,0 0,-34.71474 z"
       id="statusRollo"
       style="fill:#dededd;fill-rule:evenodd;stroke:#1f1a17;stroke-width:0.03645854" />
    <text
       x="30.736475"
       y="284.50775"
       transform="scale(1.0791882,0.92662243)"
       id="textRollo"
       style="font-size:4.75018883px;font-weight:normal;fill:#838281;fill-rule:evenodd;font-family:Arial">100</text>
  </g>
</svg>
